<?xml version="1.0" encoding="utf-8"?>
<!-- Generator: Adobe Illustrator 25.2.3, SVG Export Plug-In . SVG Version: 6.00 Build 0)  -->
<svg version="1.1" id="Capa_1" xmlns="http://www.w3.org/2000/svg" xmlns:xlink="http://www.w3.org/1999/xlink" x="0px" y="0px"
	 viewBox="0 0 500 500" style="enable-background:new 0 0 500 500;" xml:space="preserve">
<style type="text/css">
	.st0{fill:#FFFFFF;}
</style>
<g>
	<path class="st0" d="M219.95,194.39c1.36,0,2.46-1.1,2.46-2.46c0-1.36-1.1-2.46-2.46-2.46c-1.36,0-2.46,1.1-2.46,2.46
		C217.49,193.29,218.59,194.39,219.95,194.39"/>
	<path class="st0" d="M305.13,191.93c1.09,0,1.97-0.88,1.97-1.97s-0.88-1.97-1.97-1.97c-1.09,0-1.97,0.88-1.97,1.97
		S304.04,191.93,305.13,191.93"/>
	<path class="st0" d="M427.6,404.46L427.6,404.46c-0.79-2.81-1.9-5.54-3.22-8.19c-3.34-6.35-8.13-11.88-13.77-16.3
		c-3.25-2.56-6.72-4.78-10.4-6.68c-3.19-1.65-6.25-3.42-8.99-5.76c-11.06-9.44-18.88-21.85-25.69-34.54
		c-3.07-5.72-5.84-11.4-7.92-17.56c-0.65-1.92-3.22-2.89-4.94-2.16c0.49-0.69,0.73-1.62,0.51-2.76c-0.42-2.11-0.71-4.25-0.95-6.4
		c0,21.27-4.19,41.33-19.17,57.15c-33.32,36.65-68.17,71.78-68.8,122.52h171.65C435.91,483.77,435.98,423.05,427.6,404.46
		 M348.03,441.63c-21.29-6.94-22.21-6.94-22.21-6.94s-11.57,5.09-10.18,11.11c0,0-2.15-0.48-2.85-2.47
		c-0.5,7.19-3.75,24.61-23.53,26.07c0,0-5.02-9.57-2.74-15.89c2.28-6.32,8.3-12.34,12.46-15.12c0,0-1.39-1.39-3.7-1.85
		c0,0,9.72-11.11,28.23-14.81c0,0,25.88,15.24,38.16,18.03c12.28,2.79,18.3,7.42,18.3,7.42S369.32,448.57,348.03,441.63
		 M387.97,449.76c-0.5,1.32-1.19,2.63-3.8,2c2.18-6.93,3.66-13.78,3.51-21.12c0.55,0.25,1.13,0.37,1.14,0.54
		C389.49,437.42,390.3,443.68,387.97,449.76 M408.2,389.47c-3.88-2.93-8.11-5.37-12.56-7.37c-1.12-0.49-2.25-1.06-3.39-1.65
		c3.53,14.63-7.86,36.81-7.86,36.81s-14.28-48.74-47.27-23.63c-32.99,25.11-52.19,43.82-52.19,43.82s3.27-10.85,17.39-27.83
		c13.97-16.79,44.46-38.19,51.79-91.56c0,0,0,0,0,0c0,0,0,0,0,0c0.08-0.58,0.17-1.14,0.24-1.72c0,0,1.13,3.34,3.11,8.4
		c8.74,17.31,18.23,34.82,33.38,46.84c2.48,1.84,4.84,3.21,7.67,4.63c2.98,1.51,5.84,3.29,8.54,5.26
		c5.91,4.36,11.05,9.99,14.41,16.51c2.38,4.67,4.07,9.85,4.04,15.1C422.61,403.56,416.03,395.38,408.2,389.47"/>
	<path class="st0" d="M242.11,346.9c9.62,2.19,20.11,2.54,30.24,1.1c8.98-0.17,18.02-2.43,25.96-8.58c0.07-0.05,0.13-0.11,0.2-0.16
		c9.63-5.68,17.99-13.56,25.99-21.13c5.22-5.07,10.24-10.34,15.1-15.76c1.61-1.8,3.22-3.62,4.78-5.47
		c-3.5,3.48-7.06,6.9-10.66,10.28c7.42-7.41,12.55-12.84,12.55-12.84s0.01-0.13,0.02-0.31c0.2,5.96,1.4,11.88,3.65,17.36
		c-2.51-12.42-2.14-25.81,3.26-37.42c2.28-4.87,4.08-9.94,5.47-15.13c0.61,0.23,1.28,0.49,1.98,0.76c3.39,2.5,6.89,3.89,10.27,4.13
		c0.03,0.01,0.05,0.02,0.08,0.03c2.82,1.22,6.15-0.44,8.73-2.35c1.44-0.94,2.82-2.16,4.1-3.69c0.1-0.12,0.18-0.2,0.18-0.2
		s0.04-0.06,0.07-0.12c0.77-0.95,1.52-1.99,2.21-3.17c10.37-16.3,25.24-44.2,16.21-63.47c-5.35-10.6-14.65-13.82-24.01-7.7
		c0.32-0.62,0.7-1.42,1.15-2.44c-0.26,0.58-0.53,1.15-0.87,1.74l-0.51,0.78c-1,0.21-1.63,0.38-1.63,0.38s-8.9,10.08-15.85,18.09
		c-0.21-0.2-0.44-0.41-0.62-0.63c-1.18-1.33-1.93-2.75-2.49-4.09c-1.11-2.7-1.57-5.22-1.93-7.65c-0.67-4.84-0.75-9.44-1.1-13.68
		c-0.19-2.11-0.4-4.08-0.86-5.44c-0.54-1.74-1.33-3.59-2.22-5.42c-1.8-3.64-4.01-7.46-6.27-10.82l-0.35-0.52l-0.2-0.53l-0.44-1.16
		l-0.34-0.97l-0.63-1.87l-1.18-3.68l-2.17-7.31l-2.07-7.3c-0.69-2.35-1.32-5.14-1.98-6.8c-1.31-3.79-3.48-6.89-6.5-9.34
		c-3-2.46-6.9-4.25-11.21-5.51c-8.66-2.62-18.63-3.13-29-5.25c-9.44-1.94-18.49-4.54-27.51-7.7c-2.69,1.55-5.27,2.38-7.82,3.19
		c-3.34,0.99-6.63,1.72-9.93,2.27c-6.58,1.1-13.11,1.78-19.63,2.26c-6.54,0.38-13.05,0.67-19.56,0.68
		c-6.51,0.02-13.02-0.09-19.52-0.51c6.43-0.97,12.84-1.93,19.23-2.96c6.38-1.05,12.75-2.06,19.05-3.33
		c6.3-1.19,12.58-2.49,18.64-4.18c3.01-0.87,6-1.75,8.8-2.82c2.75-1.04,5.48-2.42,6.94-3.75l1.85-1.69l2.85,0.77
		c9.4,2.54,19.13,4.81,28.68,6.35c9.37,1.56,19.66,1.76,30.38,4.7c5.31,1.51,10.81,3.81,15.64,7.68c4.85,3.82,8.53,9.34,10.42,15.05
		c1.07,3.07,1.5,5.2,2.16,7.68l1.87,7.24l1.95,7.18l0.99,3.54l0.51,1.72l0.37,1.16c2.36,3.9,4.39,7.69,6.18,11.92
		c0.94,2.25,1.81,4.57,2.47,7.15c0.75,2.96,0.79,5.5,0.82,7.85c0.03,4.7-0.21,9.07,0.05,13.15c0.04,0.68,0.11,1.34,0.19,1.98
		c0.98-2.01,2.12-3.95,3.48-5.75c0.84-1.11,1.76-2.16,2.74-3.16l1.52-1.39l0.43-0.37l0.43-0.49c1.16-1.46,2.1-3.61,2.82-5.82
		c0.74-2.22,1.29-4.57,1.77-6.94c0.5-2.37,0.92-4.79,1.26-7.22c0.67-4.87,1.2-9.8,1.56-14.76c0.68,4.93,1.08,9.91,1.17,14.92
		c0.09,5.02-0.02,10.06-0.99,15.21c-0.36,1.85-0.8,3.72-1.59,5.63c0.64-1.48,1.41-3.38,2.31-5.84c3.45-9.36,3.45-29.54,3.45-29.54
		c0,4.43,2.96,4.92,2.96,4.92c-0.49-6.4,5.91-41.85,5.91-41.85c2.46-19.69-15.76-42.34-15.76-42.34
		c-43.82-46.77-75.82-41.36-75.82-41.36c0.98-2.46,5.41-3.94,5.41-3.94c-36.93-8.86-68.44,0-68.44,0
		c-60.07,19.2-76.81,52.68-81.24,62.53c-4.43,9.85-1.97,21.17-1.97,21.17c-9.85,8.37-7.88,14.28-7.88,14.28
		c2.46-1.97,1.97-0.99,1.97-0.99c-3.94,3.94-4.92,17.72-3.94,14.77c0.99-2.95,3.45-2.95,3.45-2.95c-0.12,0.59-0.39,1.97-0.99,4.92
		c-1.48,7.38,5.42,22.16,8.37,31.02c2.55,7.64,8.02,21.87,9.48,25.64l0,0.01c0,0-8.06-6.1-14.76-5.59
		c5.2-1.56,11.04,1.87,14.76,5.59c-4.27-5.07-11.79-9.48-18.17-5.46c-0.83,0.48-1.57,1.09-2.28,1.72c-0.51,0.23-0.83,0.53-1.27,0.83
		c-2.64,2.35-3.64,6.07-3.88,9.45c-0.3,3.87,0.19,7.7,0.99,11.4c1.62,7.31,3.45,14.51,5.5,21.71c2.13,7.22,4.41,14.47,7.88,21.2
		c1.42,2.88,3.56,6.01,6.44,7.79c0.35,0.2,1.12,0.6,1.47,0.79l0.77,0.3c3.08,1.2,6.21,1.24,9.35,0.88c0.11-0.01,0.21-0.03,0.32-0.05
		c0.05,0.39,0.09,0.78,0.14,1.18c1.82,13.58,6.67,26.76,14.4,38.11c2.88,4.41,7.26,9.12,11.63,13.54c-0.17,2.73-0.21,5.47-0.11,8.22
		c0.08,2.24,0.27,4.49,0.41,6.74c-0.04,0.02-0.08,0.03-0.12,0.05c-6.44,3.16-12.81,6.47-19.02,10.06
		c-6.06,3.51-12.48,7.12-17.57,11.97c-5,4.76-10.02,9.45-14.36,14.84c-4.49,5.58-8.56,11.47-12.48,17.46
		c-0.91,1.39-1.81,2.79-2.73,4.17c-0.31,0.48-0.69,1.3-1.12,1.74c-0.05-0.08-1.76,0.91-1.56,0.8c-3.28,1.85-6.53,3.74-9.76,5.68
		c-6.21,3.72-12.32,7.58-18.34,11.59c-5.99,3.99-11.94,8.08-17.68,12.43c-5.26,3.99-11.33,8.08-15.17,13.55
		c-4.32,6.16-5.21,15.07-6.01,22.33c-0.45,4.05-0.71,8.14-0.72,12.21c0,0.67-0.01,1.38-0.02,2.1l-0.01,0.02l0.01,0.07
		c-0.01,1.56,0.05,3.16,0.35,4.66l0.68,9.11h194.22c-6.67-15.34-14.59-29.15-21.5-42.96c-3.71-9.28,1.86-20.42-1.86-29.7
		c-2.46-9.44-17.27-39.6-16.19-46.74c-2.91-21.8-6.97-21.28-7.32-38.28C221.02,334.8,229.95,343.99,242.11,346.9 M394.71,185.57
		c-1.14-0.81-2.2-1.43-2.99-2.01C392.75,184.03,393.74,184.7,394.71,185.57 M396.25,193.88c3.09,7.44,2.52,15.82,1.13,23.56
		c-2.04,10.4-8.69,28.2-18.66,33.06c-1.67,0.82-3.55,1.18-5.4,1.07c1.83-0.15,3.55-0.78,5.05-1.72c4.54-2.93,7.27-7.8,9.62-12.55
		c4.53-9.69,7.69-20.24,7.99-30.98c0.09-3.98-0.24-7.98-1.57-11.68c-0.7-1.85-1.7-3.83-3.81-4.2c-4.2-0.57-8.61,2.59-11.87,5
		C383.44,190.34,392.56,184.53,396.25,193.88 M372.09,207.02c0.98,1.48,0.98,0.49,3.44,3.94c2.46,3.45,0,7.39,0,7.39
		s-0.98-1.97-3.44-3.94C369.63,212.43,372.09,207.02,372.09,207.02 M363.18,238.77c0.69-3.45,6.69-1.47,11.42-3.14
		c4.73-1.66,4.13-7.69,5.61-11.14c1.48-3.45,3.2-2.22,3.2-2.22s3.58,7.08-0.49,12.31c-1.72,2.22-5.66,2.22-9.35,3.77
		c-3.69,1.55-2.71,2.39-6.16,4.36C363.96,244.68,362.49,242.22,363.18,238.77 M152.75,215.63c-4.43-8.37-4.43-20.19-2.46-24.12
		c1.97-3.94,5.42,0,5.42,0C146.34,192.49,152.75,215.63,152.75,215.63 M155.95,229.67c9.36,18.22,17.23,21.66,17.23,21.66
		C161.85,253.79,155.95,229.67,155.95,229.67 M168.73,188.28c0,0-7.23-10.76,0.25-35.53c7.74-25.63,15.65-46.48,15.65-46.48
		S173.75,160.39,168.73,188.28 M297.53,175.4c23.42-4.04,37.63,1.09,37.63,4.54c0,3.45-1.97,3.45-10.34,1.97
		c-8.37-1.48-9.35,0.49-9.35,0.49c3.45,0,4.14,1.65,4.14,1.65l-2.17,1.3c5.91,0.98,12.72,6.94,12.72,6.94
		c-0.08,6.45-5.33,3.89-5.33,3.89l0.99,2.46c-1.48,1.48-10.34,1.48-10.34,1.48c1.97-3.94-1.97-5.91-1.97-5.91
		c-2.46,6.4-9.53,5.6-9.53,5.6c-9.04-2.28-8.2-10.03-8.2-10.03c-3.94-0.49-9.85,4.92-9.85,4.92c-2.46,1.97,5.41,3.45,5.41,3.45
		s-6.4,1.48-10.83-2.95c-4.43-4.43,0.98-6.89,0.98-6.89c0.49-2.46-7.51-2.9-7.51-2.9C272.38,181.04,274.11,179.45,297.53,175.4
		 M273.95,248c6.51-0.84,9.31,4.42,9.49,4.78c3.63-4.63,1.48-10.12-2.43-14.57c-3.2-3.48-6.21-7.32-7.92-11.8
		c-1.3-3.54-2.05-7.65-0.71-11.26c-0.43,3.7,0.71,7.3,2.23,10.6c1.61,3.26,3.76,6.22,6.16,8.97c2.47,2.72,5.07,5.97,5.83,9.96
		c0.79,3.5-0.88,7.33-3.83,9.26c-3.9,5.87-9.17,2.81-9.17,2.81c3.94,0,4.43-1.97,4.43-1.97c-7.88-4.43-16.74,0-16.74,0
		C262.79,250.84,267.22,248.87,273.95,248 M264.26,278.41c7.88-1.48,24.67-4.88,42.12,8.88c0,0-0.05-0.01-0.15-0.03
		c0.1,0.09,0.15,0.14,0.15,0.14c1.75,6.54-12.09,4.3-12.09,4.3c-3.94-2.96-10.62-4.09-10.62-4.09c-17.51-3.6-45.51-1.33-49.94,1.29
		c-2.56,1.51-2.96,3.96-2.85,5.75c4.02,3.64,21.62,16.78,55.02,3.94c-0.4,0.27-0.79,0.53-1.19,0.79
		c-3.31,2.05-13.28,7.49-27.83,8.74c-19.58,0.12-34.34-11.61-37.05-13.92c0.38,0.04,1,0.1,1.68,0.14c5.87-0.84,1.36-4.12-1.45-4.16
		c-2.84-0.04-2.57-1.44-2.57-1.44c0-0.25,0.09-0.53,0.25-0.82l0.28-0.45c1.53-2.15,6.09-5.05,8.93-6.73
		c5.01-3.16,11.23-6,16.64-5.29C254.91,276.93,256.39,279.89,264.26,278.41 M250.92,254.86c7.34,0.08,8.42,2.38,8.42,2.38
		c-4.43,3.94-13.16-2.03-13.16-2.03c-5.77-1.54-6.54,2.52-6.54,2.52c-2.55-0.42-4.43-1.34-5.84-2.43c0.06,0.07,0.12,0.14,0.18,0.22
		c-1.06-0.55-2.09-1.25-2.94-2.16c-6.31-6.95-1.13-17.66,4.91-22.95c-2.79,5.41-6.53,11.94-5.58,18.1
		C240.08,242.48,250.92,254.86,250.92,254.86 M172.53,412.65c-9.8,0.7-19.51,1.08-29.3,1.84c-7.99,0.54-16.12,1.21-24.11,1.79
		l2.8-3.76c3.8-5.29,8.69-12.82,12.86-19.19c-16.33,12.19-33.2,23.62-49.35,36.01c-2.44,1.89-4.81,3.81-7.02,5.9
		c-0.78,0.74-1.61,1.59-2.2,2.48c-1.52,2.53-2.42,5.34-3.3,8.25c-1.35,4.75-2.33,9.64-3.15,14.52c-0.63,3.68-1.17,7.4-1.53,11.12
		c-0.1,1.16-0.23,2.34-0.12,3.5c-0.54-1.23-0.5-5.11-0.53-7.29c0.1-7.6,0.76-15.12,2.42-22.59c0.62-2.79,1.44-5.69,2.73-8.37
		c0.6-1.26,1.53-2.46,2.45-3.45c4.23-4.38,9.11-8.05,13.88-11.66c14.97-10.97,30.55-20.97,46.75-29.99c0.71-1.08,1.4-2.13,2.05-3.1
		c5.27-8.13,10.64-16.26,17.03-23.64c3.56-4.15,7.81-7.7,11.61-11.54c1.8-1.75,3.84-3.2,5.89-4.61c9.56-6.38,19.72-11.83,30-16.88
		c-8.1,5.18-16.23,10.38-24.07,15.92c-2.88,2.04-5.77,4.21-8.38,6.56c-0.62,0.59-1.22,1.2-1.8,1.82c-3.47,3.8-7.17,7.2-10.38,11.17
		c-6.03,7.37-11.1,15.49-16.28,23.53c-4.4,6.88-8.92,13.74-13.61,20.45c8.21-0.48,16.98-0.87,24.95-1.06
		c2.48-0.08,4.97-0.1,7.46-0.12c-0.79-0.05-1.57-0.12-2.37-0.26c-15.25-2.54-26.43,1.02-26.43,1.02s6.61-6.1,16.27-7.63
		c9.66-1.52,17.79-1.52,25.41-4.57c7.63-3.05,12.71-0.51,13.72,1.01c0,0-10.23,9.45-22.83,10.4c2.79,0,5.57-0.01,8.32-0.06
		c6.47-0.09,12.66-1.53,17.97-5.38c2.64-1.84,5.09-4,7.47-6.24c-3.93,4.72-8.51,9.25-14.29,11.65
		C180.05,411.67,176.26,412.33,172.53,412.65 M216.37,475.58c-10.17-2.03-18.81-31.52-21.35-37.62c-2.54-6.1-6.61-7.63-6.61-7.63
		c5.59-3.56-4.58-16.27-4.58-16.27s13.22,2.54,18.3,21.35c5.08,18.81,23.38,40.16,23.38,40.16H216.37z M235.17,458.3
		c3.05-7.63,2.03,2.03,3.56,4.58c1.53,2.54,1.53,11.69,1.53,11.69l-8.13,1.01C232.12,475.58,232.12,465.92,235.17,458.3
		 M214.08,376.71c0,0-1.02,11.18,6.1,23.89c7.12,12.71,8.13,53.37,8.13,53.37s-4.07-37.11-11.69-50.83
		c-7.63-13.72-22.37-47.27-11.18-67.1C205.44,336.05,214.59,350.79,214.08,376.71 M204.4,332.59c-0.28-5.09-0.68-10.18-0.62-15.27
		c1.13,1.12,2.2,2.2,3.25,3.25c0.46,5.84-0.14,11.89-2.6,15.48C204.47,334.89,204.48,333.74,204.4,332.59 M209.12,193.72
		c-4.43,0.99-4.43,5.41-4.43,5.41c-17.72,1.48-19.2-10.83-19.2-10.83c6.4,2.96,12.31,0.49,14.93-1.05c2.62-1.54,2.8-1.41-1.9-3.21
		c-4.69-1.8-11.88,0.76-11.88,0.76c-0.33-1.03-3.12-9.3,11.91-8.29c15.03,1.01,16.48,0.46,29.28,0.97
		c12.8,0.51,17.23,4.42,19.32,11.73c2.09,7.31-6.31,5-6.31,5c-3.73-4.43-9.09-4.46-9.09-4.46c3.92,2.93,4.94,6.65,4.94,6.65
		c-4.43-4.21-9.03-3.68-9.03-3.68c-1.15,2.45-0.33,5.43-7.72,7.15C212.57,201.6,209.12,193.72,209.12,193.72"/>
</g>
</svg>
